<svg xmlns="http://www.w3.org/2000/svg" viewBox="0 0 512 512">
  <defs>
    <linearGradient id="g" x1="0" y1="0" x2="1" y2="1">
      <stop offset="0" stop-color="#0f766e"/>
      <stop offset="1" stop-color="#b45309"/>
    </linearGradient>
  </defs>
  <rect width="512" height="512" fill="url(#g)"/>
  <g fill="#fff">
    <circle cx="128" cy="128" r="20" opacity="0.85"/>
    <circle cx="384" cy="108" r="14" opacity="0.75"/>
    <circle cx="390" cy="390" r="17" opacity="0.7"/>
  </g>
  <path d="M124 164h264a36 36 0 0 1 36 36v168a36 36 0 0 1-36 36H124a36 36 0 0 1-36-36V200a36 36 0 0 1 36-36Z" fill="#ffffffdf"/>
  <path d="M160 224h192M160 266h192M160 308h144" stroke="#0f766e" stroke-width="20" stroke-linecap="round"/>
  <circle cx="360" cy="330" r="34" stroke="#b45309" stroke-width="17" fill="none"/>
  <path d="M346 332l10 10 22-22" stroke="#0f766e" stroke-width="16" stroke-linecap="round" stroke-linejoin="round" fill="none"/>
</svg>
